PathFileType        4      (X/Y/Z)      C:\Users\mrr\Desktop\moco_PFJCF\transformed_exp_static.trc         
DataRate	CameraRate	NumFrames	NumMarkers	Units	OrigDataRate	OrigDataStartFrame	OrigNumFrames
200.0	200.0	4	64	mm	200.0	245	652
Frame#	Time	R.Shoulder			L.Shoulder			R.Clavicle			L.Clavicle			R.Biceps			R.Elbow			R.MElbow			R.Forearm			R.Wrist			L.Biceps			L.Elbow			L.MElbow			L.Forearm			L.Wrist			R.ASIS			L.ASIS			R.PSIS			S2			L.PSIS			R.TH1			R.TH2			R.TH3			R.Knee			R.MKnee			R.SH1			R.SH2			R.SH3			R.SH4			R.Ankle			R.MAnkle			R.Heel			R.MT5			R.Toe			L.TH1			L.TH2			L.TH3			L.TH4			L.Knee			L.MKnee			L.SH1			L.SH2			L.SH3			L.Ankle			L.MAnkle			L.Heel			L.MT5			L.Toe			R_HJC			L_HJC			L.HeelGround			L.ToeGround			L.MT5Ground			L.AnkleJoint			L.AnkleJointGround			L.KneeJoint			R.HeelGround			R.ToeGround			R.MT5Ground			R.AnkleJoint			R.AnkleJointGround			R.KneeJoint			MidASIS			MidPSIS			MidClavicle			
		X1	Y1	Z1	X2	Y2	Z2	X3	Y3	Z3	X4	Y4	Z4	X5	Y5	Z5	X6	Y6	Z6	X7	Y7	Z7	X8	Y8	Z8	X9	Y9	Z9	X10	Y10	Z10	X11	Y11	Z11	X12	Y12	Z12	X13	Y13	Z13	X14	Y14	Z14	X15	Y15	Z15	X16	Y16	Z16	X17	Y17	Z17	X18	Y18	Z18	X19	Y19	Z19	X20	Y20	Z20	X21	Y21	Z21	X22	Y22	Z22	X23	Y23	Z23	X24	Y24	Z24	X25	Y25	Z25	X26	Y26	Z26	X27	Y27	Z27	X28	Y28	Z28	X29	Y29	Z29	X30	Y30	Z30	X31	Y31	Z31	X32	Y32	Z32	X33	Y33	Z33	X34	Y34	Z34	X35	Y35	Z35	X36	Y36	Z36	X37	Y37	Z37	X38	Y38	Z38	X39	Y39	Z39	X40	Y40	Z40	X41	Y41	Z41	X42	Y42	Z42	X43	Y43	Z43	X44	Y44	Z44	X45	Y45	Z45	X46	Y46	Z46	X47	Y47	Z47	X48	Y48	Z48	X49	Y49	Z49	X50	Y50	Z50	X51	Y51	Z51	X52	Y52	Z52	X53	Y53	Z53	X54	Y54	Z54	X55	Y55	Z55	X56	Y56	Z56	X57	Y57	Z57	X58	Y58	Z58	X59	Y59	Z59	X60	Y60	Z60	X61	Y61	Z61	X62	Y62	Z62	X63	Y63	Z63	X64	Y64	Z64	
245	1.22	-261.067	1369.053	-411.974	-259.05199999999996	1385.502	-741.699	-213.31799999999998	1342.507	-557.596	-209.54699999999997	1344.764	-597.353	-196.92599999999996	1190.376	-350.544	-74.11399999999999	1129.768	-300.615	-89.79499999999997	1099.805	-353.842	34.72000000000002	1130.342	-364.141	157.62200000000004	1145.313	-325.139	-156.09799999999996	1237.169	-811.005	-87.86799999999994	1129.515	-840.135	-99.12499999999996	1108.922	-776.348	4.299000000000051	1098.219	-832.532	141.92500000000007	1157.33	-820.006	-132.80899999999997	960.354	-440.067	-139.57499999999993	956.788	-706.759	-310.54599999999994	950.886	-522.112	-314.49299999999994	940.072	-562.524	-320.88699999999994	959.283	-617.601	-183.78199999999998	734.139	-369.372	-274.767	723.796	-420.645	-279.932	593.016	-413.937	-240.94499999999996	481.649	-378.996	-198.11899999999997	462.654	-493.192	-229.13199999999998	403.848	-357.196	-248.82499999999996	303.256	-317.902	-307.153	403.948	-384.733	-322.463	287.034	-357.088	-270.032	97.82	-317.458	-249.25299999999996	104.569	-397.215	-328.813	55.781	-361.781	-164.16699999999997	42.414	-276.008	-111.80099999999999	65.257	-334.873	-172.09099999999995	779.014	-759.473	-176.64799999999994	646.756	-749.038	-277.22799999999995	793.569	-750.62	-290.77699999999993	659.121	-725.187	-252.03899999999993	494.761	-742.378	-239.57099999999997	474.221	-616.757	-221.69499999999994	400.59	-738.6	-314.26499999999993	415.313	-744.685	-323.38599999999997	300.323	-766.993	-282.21099999999996	103.582	-770.246	-268.53099999999995	102.059	-692.193	-346.56699999999995	52.972	-723.546	-179.81699999999995	44.077	-805.97	-126.16499999999996	63.53	-749.431	-178.96099999999998	855.013	-471.088	-195.02299999999997	864.018	-671.094	-346.56699999999995	0.0	-723.546	-126.16499999999996	0.0	-749.431	-179.81699999999995	0.0	-805.97	-275.3709999999999	102.8205	-731.2194999999999	-275.3709999999999	0.0	-731.2194999999999	-245.80499999999998	484.491	-679.5675	-328.813	0.0	-361.781	-111.80099999999999	0.0	-334.873	-164.16699999999997	0.0	-276.008	-259.6425	101.1945	-357.3365	-259.6425	0.0	-357.3365	-219.53199999999995	472.1515	-436.094	-136.19199999999998	958.571	-573.413	-315.71649999999994	955.0844999999999	-569.8565	-211.43249999999998	1343.6354999999999	-577.4745	
246	1.225	-260.999	1369.251	-411.88	-258.89399999999995	1385.751	-741.58	-213.34899999999996	1342.634	-557.641	-209.55999999999997	1344.734	-597.166	-196.95199999999997	1190.356	-350.489	-74.18699999999998	1129.865	-300.618	-90.09599999999998	1099.874	-353.318	34.68100000000002	1130.426	-364.087	157.62800000000001	1145.368	-324.951	-156.09499999999994	1237.314	-810.98	-87.84699999999994	1129.678	-840.138	-97.98299999999996	1107.9	-775.25	4.41100000000005	1098.635	-832.74	141.98200000000006	1157.399	-819.804	-132.78999999999996	960.447	-440.074	-139.57099999999994	956.973	-706.793	-310.34499999999997	950.531	-521.619	-314.60999999999996	940.048	-562.475	-320.8179999999999	959.333	-617.549	-183.76999999999998	734.388	-369.36	-274.797	724.116	-420.558	-279.907	593.143	-414.005	-240.88299999999998	481.6	-378.962	-198.04999999999998	462.951	-493.087	-229.19199999999998	403.679	-357.304	-248.79299999999998	303.515	-317.921	-307.017	403.965	-384.479	-322.357	286.902	-356.959	-269.85	97.695	-317.345	-249.23299999999998	104.972	-397.189	-328.878	55.83	-361.708	-164.09699999999998	42.434	-275.96	-111.82799999999999	65.401	-334.635	-172.05199999999994	779.138	-759.436	-176.69899999999996	646.821	-748.97	-277.30099999999993	793.61	-750.562	-290.7699999999999	659.2	-724.921	-252.06899999999993	494.895	-742.335	-239.57299999999998	474.249	-616.746	-221.72699999999995	400.61	-738.379	-314.3039999999999	415.274	-744.316	-323.34899999999993	300.431	-766.849	-282.1499999999999	103.482	-770.162	-268.49099999999993	102.219	-692.212	-346.59499999999997	53.122	-723.303	-179.79899999999995	44.153	-805.969	-126.20799999999996	63.615	-749.39	-178.72999999999996	855.009	-471.099	-194.94099999999997	864.15	-671.086	-346.59499999999997	0.0	-723.303	-126.20799999999996	0.0	-749.39	-179.79899999999995	0.0	-805.969	-275.3204999999999	102.8505	-731.187	-275.3204999999999	0.0	-731.187	-245.82099999999997	484.572	-679.5405000000001	-328.878	0.0	-361.708	-111.82799999999999	0.0	-334.635	-164.09699999999998	0.0	-275.96	-259.54150000000004	101.33349999999999	-357.26700000000005	-259.54150000000004	0.0	-357.26700000000005	-219.46649999999997	472.2755	-436.0245	-136.18049999999997	958.71	-573.4335	-315.58149999999995	954.932	-569.5840000000001	-211.45449999999997	1343.684	-577.4035	
247	1.23	-261.012	1369.319	-411.881	-258.89399999999995	1385.922	-741.466	-213.21399999999997	1342.725	-557.464	-209.54299999999998	1344.825	-597.091	-196.96599999999998	1190.407	-350.266	-74.24499999999999	1129.921	-300.646	-90.40199999999997	1100.003	-352.917	34.64400000000002	1130.532	-364.033	157.54100000000003	1145.44	-324.86	-156.05599999999995	1237.501	-810.896	-87.83499999999994	1129.82	-840.132	-97.89399999999996	1108.145	-775.266	4.41900000000005	1098.775	-832.714	142.00100000000006	1157.403	-819.671	-132.75999999999996	960.52	-440.09	-139.49799999999993	957.173	-706.836	-310.32699999999994	950.432	-521.606	-314.67799999999994	940.014	-562.346	-320.80799999999994	959.206	-617.45	-183.76699999999997	734.495	-369.334	-274.739	724.21	-420.406	-279.872	593.214	-413.956	-240.84099999999998	481.696	-378.902	-197.95499999999998	463.239	-493.002	-229.22799999999998	403.763	-357.266	-248.66099999999997	303.776	-317.602	-307.075	403.837	-384.51	-322.351	286.934	-356.893	-269.77	97.682	-317.243	-249.20499999999998	105.32	-397.232	-328.885	55.977	-361.656	-163.99799999999996	42.538	-275.962	-111.84999999999998	65.513	-334.532	-172.10299999999995	779.362	-760.12	-176.61899999999994	646.853	-748.839	-277.2989999999999	793.54	-750.198	-290.76499999999993	659.217	-724.79	-252.05499999999995	495.025	-742.263	-239.58599999999998	474.261	-616.721	-221.70099999999994	400.734	-738.313	-314.38699999999994	415.31	-744.02	-323.42099999999994	300.412	-766.675	-281.83799999999997	103.222	-769.872	-268.47999999999996	102.343	-692.058	-346.63899999999995	53.309	-723.177	-179.78299999999993	44.314	-805.844	-126.15399999999995	63.658	-749.169	-178.57699999999997	855.05	-471.118	-194.84599999999998	864.252	-671.097	-346.63899999999995	0.0	-723.177	-126.15399999999995	0.0	-749.169	-179.78299999999993	0.0	-805.844	-275.15899999999993	102.7825	-730.9649999999999	-275.15899999999993	0.0	-730.9649999999999	-245.82049999999998	484.64300000000003	-679.492	-328.885	0.0	-361.656	-111.84999999999998	0.0	-334.532	-163.99799999999996	0.0	-275.962	-259.4875	101.501	-357.2375	-259.4875	0.0	-357.2375	-219.398	472.4675	-435.952	-136.12899999999996	958.8465	-573.463	-315.56749999999994	954.819	-569.528	-211.37849999999997	1343.775	-577.2775	
248	1.235	-261.047	1369.364	-411.855	-258.9069999999999	1386.111	-741.342	-213.28399999999996	1342.806	-557.47	-209.48999999999998	1344.917	-596.959	-197.09899999999996	1190.411	-350.351	-74.42399999999999	1129.855	-300.619	-90.56299999999997	1100.137	-352.487	34.62300000000002	1130.629	-363.982	157.50700000000003	1145.527	-324.783	-156.00699999999995	1237.665	-810.824	-87.78999999999995	1129.933	-840.104	-97.87199999999996	1108.427	-775.334	4.429000000000051	1098.882	-832.683	141.99100000000007	1157.529	-819.606	-132.76599999999996	960.568	-440.095	-139.52299999999994	957.282	-706.706	-310.45599999999996	950.293	-521.37	-314.67499999999995	940.063	-562.139	-320.7219999999999	959.078	-617.292	-183.75199999999998	734.603	-369.292	-274.746	724.41	-420.382	-279.863	593.218	-414.023	-240.85499999999996	481.885	-378.719	-197.90399999999997	463.539	-492.905	-229.22299999999998	403.842	-357.257	-248.64099999999996	303.889	-317.6	-307.077	403.837	-384.497	-322.346	286.955	-356.955	-270.03	97.722	-317.201	-249.15799999999996	105.625	-397.225	-328.86	56.195	-361.551	-164.08899999999997	42.513	-275.995	-111.85099999999998	65.592	-334.478	-172.13099999999994	779.471	-760.084	-176.62799999999993	647.004	-748.872	-277.29799999999994	793.634	-750.043	-290.83799999999997	659.284	-724.609	-252.03799999999995	495.144	-742.192	-239.68799999999996	474.066	-616.649	-221.67199999999994	400.843	-738.245	-314.41799999999995	415.396	-743.914	-323.44999999999993	300.536	-766.48	-281.8349999999999	103.186	-769.851	-268.3999999999999	102.614	-691.764	-346.6329999999999	53.305	-722.899	-179.83599999999996	44.521	-805.885	-126.14699999999996	63.793	-749.042	-178.48299999999998	855.072	-471.01	-194.81699999999998	864.299	-670.983	-346.6329999999999	0.0	-722.899	-126.14699999999996	0.0	-749.042	-179.83599999999996	0.0	-805.885	-275.1174999999999	102.9	-730.8075	-275.1174999999999	0.0	-730.8075	-245.86299999999997	484.605	-679.4205	-328.86	0.0	-361.551	-111.85099999999998	0.0	-334.478	-164.08899999999997	0.0	-275.995	-259.594	101.67349999999999	-357.213	-259.594	0.0	-357.213	-219.37949999999998	472.712	-435.812	-136.14449999999997	958.925	-573.4005	-315.58899999999994	954.6855	-569.331	-211.38699999999997	1343.8615	-577.2145	
